<?xml version="1.0" encoding="UTF-8"?>
<svg version="1.1" xmlns="http://www.w3.org/2000/svg" width="48" height="48">
<path d="M0 0 C3.39453125 1.63671875 3.39453125 1.63671875 6.8125 3.6875 C7.95332031 4.35136719 9.09414063 5.01523438 10.26953125 5.69921875 C13 8 13 8 13.8671875 10.828125 C13.91101562 11.87484375 13.95484375 12.9215625 14 14 C14.07863281 15.14597656 14.15726563 16.29195312 14.23828125 17.47265625 C14.26277344 18.65730469 14.28726563 19.84195312 14.3125 21.0625 C14.36857422 22.84333984 14.36857422 22.84333984 14.42578125 24.66015625 C13.92039292 28.62444086 12.77044776 30.1835485 10 33 C8.9171875 33.680625 8.9171875 33.680625 7.8125 34.375 C5.06364017 36.83949502 5.26805163 39.44831591 5 43 C-0.86711957 42.51815926 -5.17042204 40.03173154 -10.1875 37.1875 C-10.99380859 36.74857422 -11.80011719 36.30964844 -12.63085938 35.85742188 C-13.79391602 35.20676758 -13.79391602 35.20676758 -14.98046875 34.54296875 C-16.03077271 33.9555188 -16.03077271 33.9555188 -17.10229492 33.35620117 C-19.9167222 31.34486147 -21.73627628 29.39873088 -22.38818359 25.94116211 C-22.39156738 25.22710205 -22.39495117 24.51304199 -22.3984375 23.77734375 C-22.40230469 22.99166016 -22.40617187 22.20597656 -22.41015625 21.39648438 C-22.39855469 20.58501953 -22.38695312 19.77355469 -22.375 18.9375 C-22.38660156 18.12216797 -22.39820313 17.30683594 -22.41015625 16.46679688 C-22.40628906 15.68240234 -22.40242188 14.89800781 -22.3984375 14.08984375 C-22.39336182 13.02044556 -22.39336182 13.02044556 -22.38818359 11.92944336 C-21.66619349 8.34083469 -18.94372233 6.96002707 -16.07421875 4.921875 C-14.94830795 4.19326684 -13.81930323 3.4694209 -12.6875 2.75 C-12.13126953 2.37359375 -11.57503906 1.9971875 -11.00195312 1.609375 C-6.91490478 -0.97893035 -4.59599115 -1.47429846 0 0 Z " fill="#263954" transform="translate(28,3)"/>
<path d="M0 0 C3.39453125 1.63671875 3.39453125 1.63671875 6.8125 3.6875 C7.95332031 4.35136719 9.09414063 5.01523438 10.26953125 5.69921875 C13 8 13 8 13.8671875 10.828125 C13.91101562 11.87484375 13.95484375 12.9215625 14 14 C14.07863281 15.14597656 14.15726563 16.29195312 14.23828125 17.47265625 C14.26277344 18.65730469 14.28726563 19.84195312 14.3125 21.0625 C14.36857422 22.84333984 14.36857422 22.84333984 14.42578125 24.66015625 C13.92039292 28.62444086 12.77044776 30.1835485 10 33 C8.9171875 33.680625 8.9171875 33.680625 7.8125 34.375 C5.06364017 36.83949502 5.26805163 39.44831591 5 43 C-0.86711957 42.51815926 -5.17042204 40.03173154 -10.1875 37.1875 C-10.99380859 36.74857422 -11.80011719 36.30964844 -12.63085938 35.85742188 C-13.79391602 35.20676758 -13.79391602 35.20676758 -14.98046875 34.54296875 C-16.03077271 33.9555188 -16.03077271 33.9555188 -17.10229492 33.35620117 C-19.9167222 31.34486147 -21.73627628 29.39873088 -22.38818359 25.94116211 C-22.39156738 25.22710205 -22.39495117 24.51304199 -22.3984375 23.77734375 C-22.40230469 22.99166016 -22.40617187 22.20597656 -22.41015625 21.39648438 C-22.39855469 20.58501953 -22.38695312 19.77355469 -22.375 18.9375 C-22.38660156 18.12216797 -22.39820313 17.30683594 -22.41015625 16.46679688 C-22.40628906 15.68240234 -22.40242188 14.89800781 -22.3984375 14.08984375 C-22.39336182 13.02044556 -22.39336182 13.02044556 -22.38818359 11.92944336 C-21.66619349 8.34083469 -18.94372233 6.96002707 -16.07421875 4.921875 C-14.94830795 4.19326684 -13.81930323 3.4694209 -12.6875 2.75 C-12.13126953 2.37359375 -11.57503906 1.9971875 -11.00195312 1.609375 C-6.91490478 -0.97893035 -4.59599115 -1.47429846 0 0 Z M-12.6875 4.9375 C-13.28111328 5.31068359 -13.87472656 5.68386719 -14.48632812 6.06835938 C-17.39624007 7.83397629 -17.39624007 7.83397629 -20 10 C-21.11540505 16.2600542 -22.1019615 22.86029899 -20 29 C-15.66571578 34.08040513 -9.05843887 36.5477423 -3 39 C-1.64615903 39.58106368 -0.29319971 40.16418877 1.05859375 40.75 C2.51458984 41.36875 2.51458984 41.36875 4 42 C4.020625 40.783125 4.04125 39.56625 4.0625 38.3125 C4.09765625 36.23828125 4.09765625 36.23828125 5 34 C6.14382302 33.23997593 7.313021 32.51766933 8.49609375 31.8203125 C10.77085676 30.30700567 11.81797345 29.52667173 12.71899414 26.91967773 C13.01641337 24.42895317 13.07239955 22.06978539 13 19.5625 C12.98799561 18.70591797 12.97599121 17.84933594 12.96362305 16.96679688 C12.74823284 13.06487685 12.52345748 10.69757597 10.14453125 7.52734375 C7.81364393 6.00074921 5.60479383 4.9735088 3 4 C2.071875 3.38125 1.14375 2.7625 0.1875 2.125 C-4.95891023 -0.52172526 -8.38409312 2.1495786 -12.6875 4.9375 Z " fill="#020305" transform="translate(28,3)"/>
<path d="M0 0 C1.32 0 2.64 0 4 0 C4.86625 0.928125 4.86625 0.928125 5.75 1.875 C8.92818046 4.87661488 11.74620296 5.14924059 16 6 C15.67 7.65 15.34 9.3 15 11 C13.68 10.67 12.36 10.34 11 10 C11 9.01 11 8.02 11 7 C10.28972656 6.82984375 9.57945313 6.6596875 8.84765625 6.484375 C7.92855469 6.24203125 7.00945313 5.9996875 6.0625 5.75 C5.14597656 5.51796875 4.22945312 5.2859375 3.28515625 5.046875 C1 4 1 4 0.18359375 1.890625 C0.12300781 1.26671875 0.06242187 0.6428125 0 0 Z " fill="#BDCBCB" transform="translate(17,14)"/>
<path d="M0 0 C0.33 0.66 0.66 1.32 1 2 C-0.6875 4.0625 -0.6875 4.0625 -3 6 C-5.75 5.75 -5.75 5.75 -8 5 C-7.67 4.01 -7.34 3.02 -7 2 C-3.4375 0.8125 -3.4375 0.8125 0 0 Z " fill="#B7C4C4" transform="translate(24,25)"/>
<path d="M0 0 C-0.33 1.65 -0.66 3.3 -1 5 C-2.32 4.67 -3.64 4.34 -5 4 C-5 3.01 -5 2.02 -5 1 C-3 0 -3 0 0 0 Z " fill="#CBD9D9" transform="translate(33,20)"/>
</svg>
