<?xml version="1.0" encoding="UTF-8"?>
<svg id="Capa_1" data-name="Capa 1" xmlns="http://www.w3.org/2000/svg" viewBox="0 0 2000 2000">
  <defs>
    <style>
      .cls-1 {
        fill: none;
        stroke-width: 15.7px;
      }

      .cls-1, .cls-2 {
        stroke: #000;
        stroke-miterlimit: 10;
      }

      .cls-2 {
        fill: #f8f9fa;
        stroke-width: 19.62px;
      }
    </style>
  </defs>
  <circle class="cls-2" cx="1000" cy="1000" r="850"/>
  <g>
    <path d="m1618.31,1347.6h-560.04l96.01-174.33h169.27l-106.95-183.59-204.65,357.92h-196.22c134.04-231.45,268.09-462.91,402.13-694.36,133.48,231.45,266.97,462.91,400.45,694.36Z"/>
    <path class="cls-1" d="m1175.75,652.4h-441.83c-144.68,0-276.04,87.6-328.48,222.45-13.62,35.02-21.75,72.56-23.43,111.47-1.12,25.94.68,51.5,5.12,76.33,29.64,165.59,175.7,284.96,343.93,284.96h40.45l99.8-174.75-148.78,1.93c-96.19,1.25-176.71-75.38-177.19-171.58,0-1.7,0-3.39.05-5.1.04-1.72.11-3.43.2-5.14,4.9-93.57,83.87-166.14,177.56-166.19,114.14-.06,228.28-.13,342.42-.19l110.18-174.19Z"/>
  </g>
</svg>